# xmcd
#
# Track frame offsets: 
#        150
#        38822
#        77665
#        114192
#        142510
#        175155
#        211185
#        249010
#        282987
#        306102
#
# Disc length: 4326 seconds
#
# Revision: 11
# Processed by: cddbd v1.5.2PL0 Copyright (c) Steve Scherf et al.
# Submitted via: ExactAudioCopy v0.99pb4
#
DISCID=7210e40a
DTITLE=Herbie Hancock - The New Standard
DYEAR=1996
DGENRE=Jazz
TTITLE0=New York Minute
TTITLE1=Mercy Street
TTITLE2=Norwegian Wood (This Bird Has Flown)
TTITLE3=When Can I See You
TTITLE4=You've Got It Bad Girl
TTITLE5=Love Is Stronger Than Pride
TTITLE6=Scarborough Fair
TTITLE7=Thieves In The Temple
TTITLE8=All Apologies
TTITLE9=Manhattan (Island of Lights and Love)
EXTD=Record Label:\tVerve/Polygram\nCatalog Number:\t314 529 584-2\nRe
EXTD=cording Dates:\t?\nOriginal Release:\tFebruary 19, 1996\nCD Reiss
EXTD=ue:\tNA\n\nHerbie Hancock:\tPiano\nMichael Brecker:\tTenor and Sopr
EXTD=ano Saxophones\nJohn Scofield:\tAcoustic and Electric Guitars, Elec
EXTD=tric Sitar\nDave Holland:\tAcoustic Bass\nJack DeJohnette:\tDrums
EXTD=, Electric Percussion\nDon Alias:\tPercussion\n\nWoodwinds and Bras
EXTD=s (tracks 2, 3, and 6):\nSam Riney:\tFlute, Alto Flute\nGary Herbig
EXTD=:\tBass Clarinet, Flute\nGene Cipriano:\tOboe, English Horn\nWill
EXTD=iam E. Green:\tFlute, Alto Flute\nLester Lovitt:\tTrumpet, Flugel
EXTD=horn\nOscar Brashear:\tTrumpet, Flugelhorn\nSuzette Moriarty:\tFr
EXTD=ench Horn\nMaurice Spears:\tBass Trombone\n\nStrings (tracks 2, 3
EXTD=, 4, and 6):\nLili R. Haydn:\tViolin\nMargaret Wootn:\tViolin\nRich
EXTD=ard S. Greene:\tViolin\nCameron L. Stone:\tCello
EXTT0=
EXTT1=
EXTT2=
EXTT3=
EXTT4=
EXTT5=
EXTT6=
EXTT7=
EXTT8=
EXTT9=
PLAYORDER=
